<?xml version="1.0" standalone="no"?><!DOCTYPE svg PUBLIC "-//W3C//DTD SVG 1.1//EN" "http://www.w3.org/Graphics/SVG/1.1/DTD/svg11.dtd"><svg t="1621165188532" class="icon" viewBox="0 0 1034 1024" version="1.1" xmlns="http://www.w3.org/2000/svg" p-id="11633" xmlns:xlink="http://www.w3.org/1999/xlink" width="201.953125" height="200"><defs><style type="text/css"></style></defs><path d="M974.026619 279.850932c29.075421-29.075421 32.709849-79.957409 0-109.032831L825.015084 21.806566c-32.709849-29.075421-79.957409-29.075421-112.667258 0l-156.28039 152.645963 261.678793 258.044365 156.28039-152.645962zM105.398403 625.121562c-14.537711 18.172138-25.440994 36.344277-36.344277 54.516415L3.634428 912.241349c-7.268855 18.172138 0 39.978705 14.53771 54.516415 14.537711 14.537711 36.344277 18.172138 54.516416 14.537711l236.237799-65.419699c21.806566-7.268855 39.978705-18.172138 54.516415-36.344276l58.150843-54.516416-261.678793-254.409938-54.516415 54.516416zM290.754215 39.978705c-32.709849-32.709849-83.591837-32.709849-119.936114 0L29.075421 181.721384C0 214.431233 0 265.313221 29.075421 298.02307l69.054126 69.054126 123.570542-123.570541c14.537711-18.172138 39.978705-21.806566 58.150843-3.634428 3.634428 0 3.634428 3.634428 3.634427 3.634428 18.172138 14.537711 21.806566 39.978705 7.268856 58.150843 0 3.634428 0 3.634428-3.634428 7.268855l-127.204969 119.936114 65.419698 65.419698 72.688554-76.322981c14.537711-18.172138 39.978705-21.806566 58.150843-3.634428l3.634428 3.634428c18.172138 14.537711 21.806566 39.978705 7.268855 58.150843 0 3.634428-3.634428 3.634428-7.268855 7.268855l-76.322982 72.688554 65.419699 65.419698 123.570541-127.204969c18.172138-18.172138 47.24756-18.172138 65.419698 0s18.172138 47.24756 0 61.785271l-127.204969 119.936113 65.419699 65.419699 76.322981-72.688554c10.903283-10.903283 29.075421-14.537711 43.613132-10.903283 14.537711 3.634428 29.075421 14.537711 32.709849 32.709849 3.634428 14.537711 0 32.709849-10.903283 43.613132l-79.957409 69.054126 65.419699 65.419699 123.570541-123.570542c18.172138-18.172138 47.24756-18.172138 65.419698 0s18.172138 47.24756 0 61.785271l-127.204969 119.936113 76.322982 72.688554c32.709849 32.709849 83.591837 32.709849 119.936113 0l141.74268-141.74268c32.709849-32.709849 32.709849-83.591837 0-116.301685C974.026619 712.347826 290.754215 39.978705 290.754215 39.978705z" p-id="11634" fill="#13227a"></path></svg>