<?xml version="1.0" standalone="no"?><!DOCTYPE svg PUBLIC "-//W3C//DTD SVG 1.1//EN" "http://www.w3.org/Graphics/SVG/1.1/DTD/svg11.dtd"><svg t="1621165042993" class="icon" viewBox="0 0 1024 1024" version="1.1" xmlns="http://www.w3.org/2000/svg" p-id="9867" xmlns:xlink="http://www.w3.org/1999/xlink" width="200" height="200"><defs><style type="text/css"></style></defs><path d="M321.0753125 335.3609375h-73.1484375c1.3359375-10.501875 1.92-20.6053125 3.995625-30.410625 6.8221875-32.23125 22.3753125-59.626875 47.1684375-81.4996875 19.6171875-17.30625 42.1790625-29.2734375 68.24625-32.62875 16.7334375-2.15625 33.7903125-1.801875 50.7103125-2.535 2.075625-0.0871875 4.156875 0 6.375 0V89.643125c-63.560625-4.90875-122.1628125 7.32-172.7925 46.9884375-64.2815625 50.338125-94.7353125 117.6459375-96.7115625 199.1203125h-80.859375L197.40875 479.9a713344.72125 713344.72125 0 0 0 123.6665625-144.5390625z m184.69875 269.1496875c-1.0753125-13.3659375-6.7171875-24.3140625-17.25-32.728125-9.2521875-7.381875-19.9959375-9.8240625-31.5346875-9.8240625-51.5625 0.031875-103.130625 0-154.6921875 0-51.39375 0-102.7875-0.0121875-154.1953125 0.09375-4.9959375 0.0121875-10.1840625 0.34125-14.986875 1.640625-21.885 5.9775-34.4128125 22.959375-34.430625 46.32375-0.0253125 92.529375-0.0253125 185.053125 0.061875 277.5628125 0 4.505625 0.435 9.1903125 1.6275 13.515 5.990625 21.7115625 22.550625 34.288125 45.9075 34.3125 104.1 0.13125 208.2 0.05625 312.3046875 0.0253125 10.4953125-0.0065625 20.356875-2.4609375 28.89375-8.9353125 12.931875-9.80625 18.5175-23.034375 18.50625-39.0534375-0.05625-92.5303125-0.031875-185.0409375-0.0440625-277.5515625 0-1.8084375-0.0253125-3.6159375-0.16875-5.38125z m-211.175625 7.363125c42.1171875 0 76.38 34.2628125 76.38 76.38s-34.2628125 76.3734375-76.38 76.3734375-76.38-34.25625-76.38-76.3734375 34.2628125-76.38 76.38-76.38zM154.7075 885.3875c1.64625-18.4734375 10.5075-83.9109375 78.654375-118.9565625a98.86125 98.86125 0 0 0 61.2365625 21.256875 98.86125 98.86125 0 0 0 61.5225-21.474375c68.4384375 34.8965625 76.7034375 99.8803125 78.3684375 119.1675-0.410625 0.391875-279.3778125 0.0375-279.781875 0.0065625z m710.0803125-423.7246875c5.0146875 0 10.209375-0.2915625 15.005625-1.5965625 21.481875-5.835 34.36875-22.5253125 34.3996875-44.82 0.1059375-93.49875 0.1434375-186.991875-0.1490625-280.490625a50.840625 50.840625 0 0 0-4.6415625-20.709375c-8.668125-18.3-24.301875-25.813125-44.068125-25.813125-103.1240625 0.0121875-206.2359375-0.01875-309.3721875 0.061875-4.69125 0.013125-9.5315625 0.2859375-14.049375 1.460625-21.57375 5.5921875-34.865625 22.400625-34.8965625 44.9315625-0.1734375 93.511875-0.1303125 187.0040625-0.0309375 280.5028125 0.0309375 15.3665625 6.0590625 28.160625 18.560625 37.55625v0.0065625c9.00375 6.75375 19.355625 8.9596875 30.3853125 8.96625h154.6734375c51.39375 0.0121875 102.8015625 0.061875 154.183125-0.05625z m-154.201875-334.4625c42.1171875 0 76.38 34.2628125 76.38 76.3790625s-34.2628125 76.374375-76.38 76.374375c-42.110625 0-76.3734375-34.25625-76.3734375-76.374375s34.2628125-76.3790625 76.3734375-76.3790625z m-61.2365625 154.5553125a98.8546875 98.8546875 0 0 0 61.2309375 21.256875c23.2265625 0 44.58375-8.071875 61.5225-21.474375 68.4384375 34.8965625 76.7025 99.8803125 78.361875 119.1675-0.3975 0.391875-279.37125 0.0375-279.7753125 0.0065625 1.6528125-18.4734375 10.5196875-83.9109375 78.66-118.9565625z m188.52 262.6875L714.0415625 689.1425h72.6196875c-0.4846875 29.3353125-7.9659375 56.055-23.5621875 80.1890625-21.766875 33.7528125-52.12125 55.7128125-91.7221875 63.7715625-10.456875 2.1253125-21.3628125 2.30625-32.0690625 2.8275-9.4078125 0.435-18.84 0.080625-28.4465625 0.080625v98.7496875c60.373125 4.5984375 116.67-5.934375 166.00125-42.03 68.64375-50.2134375 101.1853125-119.2490625 103.546875-204.0046875v-0.0065625l80.9278125 0.0065625c-41.533125-48.5175-82.30125-96.1828125-123.4678125-144.2840625z" p-id="9868" fill="#b6240b"></path></svg>