<?xml version="1.0" standalone="no"?><!DOCTYPE svg PUBLIC "-//W3C//DTD SVG 1.1//EN" "http://www.w3.org/Graphics/SVG/1.1/DTD/svg11.dtd"><svg t="1621319573289" class="icon" viewBox="0 0 1024 1024" version="1.1" xmlns="http://www.w3.org/2000/svg" p-id="6782" xmlns:xlink="http://www.w3.org/1999/xlink" width="200" height="200"><defs><style type="text/css"></style></defs><path d="M1024 928c0 53.016-42.984 96-96 96H96c-53.016 0-96-42.984-96-96V96C0 42.984 42.984 0 96 0h832c53.016 0 96 42.984 96 96v832zM508.112 505.648c-116.344-239.496 151.84-142.2 85.728-380.568 27.44 148.552-348.024 174.752-85.728 380.568z m152.904-229.52c-255.528 74.84-85.888 198.336-95.864 250.728 111.016-57.376-104.784-174.64 95.864-250.728z m35.112 266.944c-65.832 58.032-455.296 66.112-286.896-24.944-326.824 84.816 232.008 190.848 286.896 24.944z m-268.424 120.36c-89.576 76.728 183.504 110.344 222.272 0-78.592 32.424-205.824 53.024-222.272 0z m-121.136 62.176c-391.312 124.776 441.944 195.432 535.84 19.96-105.896 58.024-677.672 104.816-535.84-19.96z m409.52-71.52c168.4-62.368 57.384-210.808-19.96-127.232 77.344-8.728 94.8 56.128 19.96 127.232z m0 0" fill="#1296DB" p-id="6783"></path></svg>