<?xml version="1.0" standalone="no"?><!DOCTYPE svg PUBLIC "-//W3C//DTD SVG 1.1//EN" "http://www.w3.org/Graphics/SVG/1.1/DTD/svg11.dtd"><svg t="1621319482638" class="icon" viewBox="0 0 1024 1024" version="1.1" xmlns="http://www.w3.org/2000/svg" p-id="5934" xmlns:xlink="http://www.w3.org/1999/xlink" width="200" height="200"><defs><style type="text/css"></style></defs><path d="M920.512 822.336a63.36 63.36 0 0 1-62.976 63.744H201.152a63.36 63.36 0 0 1-62.976-63.744V509.824a63.36 63.36 0 0 1 62.976-63.68h656.384c34.816 0 62.976 28.48 62.976 63.68v312.512z" fill="#F6E4B0" p-id="5935"></path><path d="M857.472 904.768h-656.32a82.176 82.176 0 0 1-81.728-82.432V509.824c0-45.44 36.672-82.496 81.728-82.496h656.384c45.12 0 81.728 37.056 81.728 82.496v312.512c0 45.504-36.608 82.432-81.792 82.432z m-656.32-439.936a44.672 44.672 0 0 0-44.224 44.992v312.512c0 24.832 19.84 44.992 44.224 44.992h656.384a44.672 44.672 0 0 0 44.224-44.992V509.824a44.672 44.672 0 0 0-44.224-44.992H201.152z" fill="#5B4037" p-id="5936"></path><path d="M313.92 547.328h44.032v209.984H313.92z" fill="#6A5646" p-id="5937"></path><path d="M291.904 547.328H336v209.984h-44.096z" fill="#3C2622" p-id="5938"></path><path d="M408 547.328h44.032v209.984H408z" fill="#6A5646" p-id="5939"></path><path d="M385.92 547.328h44.096v209.984H385.92z" fill="#3C2622" p-id="5940"></path><path d="M501.696 547.328h44.096v209.984h-44.096z" fill="#6A5646" p-id="5941"></path><path d="M479.744 547.328h44.032v209.984h-44.032z" fill="#3C2622" p-id="5942"></path><path d="M646.656 547.328h44.032v209.984h-44.032z" fill="#6A5646" p-id="5943"></path><path d="M624.64 547.328h44.032v209.984H624.64z" fill="#3C2622" p-id="5944"></path><path d="M740.352 547.328h44.096v209.984h-44.096z" fill="#6A5646" p-id="5945"></path><path d="M718.4 547.328h44.032v209.984H718.4z" fill="#3C2622" p-id="5946"></path><path d="M128.128 314.432v327.04h808.64v-182.4c0-58.752-49.536-106.368-110.656-106.368H634.048l-78.4-120.384c-35.712-72.448-60.544-103.296-119.04-103.296H232.576c-58.688 0-106.304 47.616-106.304 106.304l1.856 79.104" fill="#5B4037" p-id="5947"></path></svg>