<?xml version="1.0" standalone="no"?><!DOCTYPE svg PUBLIC "-//W3C//DTD SVG 1.1//EN" "http://www.w3.org/Graphics/SVG/1.1/DTD/svg11.dtd"><svg t="1621164966422" class="icon" viewBox="0 0 1045 1024" version="1.1" xmlns="http://www.w3.org/2000/svg" p-id="9061" xmlns:xlink="http://www.w3.org/1999/xlink" width="204.1015625" height="200"><defs><style type="text/css"></style></defs><path d="M526.785937 510.512894m-500.709012 0a500.709012 500.709012 0 1 0 1001.418024 0 500.709012 500.709012 0 1 0-1001.418024 0Z" fill="#E94C5C" p-id="9062"></path><path d="M832.20842 839.148247c-6.409075 0-12.808137-2.44346-17.705071-7.33038l-187.26517-187.26517a25.025436 25.025436 0 1 1 35.400127-35.400127l187.265171 187.26517a25.015422 25.015422 0 0 1-17.695057 42.730507z" fill="#FFFFFF" p-id="9063"></path><path d="M635.469835 301.376754c71.791658 95.615393 57.721735 235.693746-42.279869 313.854423-81.295115 63.539974-197.790074 62.899066-278.46431-1.442042-107.071615-85.380901-113.560804-242.553459-19.47758-336.626669 72.823119-72.823119 183.409711-85.360872 269.281306-37.673346a25.125578 25.125578 0 0 0 30.042541-4.015686c11.696563-11.696563 9.132932-31.484583-5.31753-39.535984-113.200293-63.109364-261.740629-40.417231-349.474861 68.146497-80.333754 99.390739-80.884534 243.935416-1.231745 343.876935 104.307701 130.875322 296.369664 138.836595 411.342468 23.853777 98.138966-98.138966 106.661034-252.397399 25.686372-360.350261-9.253103-12.33747-27.138428-13.929725-38.033856-3.024283-8.902606 8.892592-9.623627 22.872388-2.072936 32.936639z" fill="#FFFFFF" p-id="9064"></path></svg>