<?xml version="1.0" standalone="no"?><!DOCTYPE svg PUBLIC "-//W3C//DTD SVG 1.1//EN" "http://www.w3.org/Graphics/SVG/1.1/DTD/svg11.dtd"><svg t="1621319303804" class="icon" viewBox="0 0 1024 1024" version="1.1" xmlns="http://www.w3.org/2000/svg" p-id="3200" xmlns:xlink="http://www.w3.org/1999/xlink" width="200" height="200"><defs><style type="text/css"></style></defs><path d="M938.666667 782.557867V360.9088C938.666667 312.388267 900.4544 273.066667 853.333333 273.066667H187.733333c-47.121067 0-85.333333 39.3216-85.333333 87.842133v421.649067C102.4 831.0784 140.612267 870.4 187.733333 870.4h665.6c47.121067 0 85.333333-39.3216 85.333334-87.842133z m-34.133334 0.802133c0 29.218133-22.920533 52.906667-51.2 52.906667H187.733333c-28.279467 0-51.2-23.688533-51.2-52.906667V360.106667c0-29.218133 22.920533-52.906667 51.2-52.906667h665.6c28.279467 0 51.2 23.688533 51.2 52.906667v423.253333z" fill="#000000" p-id="3201"></path><path d="M238.933333 337.493333h341.333334a68.266667 68.266667 0 0 1 68.266666 68.266667v273.066667a68.266667 68.266667 0 0 1-68.266666 68.266666H238.933333a68.266667 68.266667 0 0 1-68.266666-68.266666v-273.066667a68.266667 68.266667 0 0 1 68.266666-68.266667z" fill="#000000" p-id="3202"></path><path d="M238.933333 371.626667a34.133333 34.133333 0 0 0-34.133333 34.133333v273.066667a34.133333 34.133333 0 0 0 34.133333 34.133333h341.333334a34.133333 34.133333 0 0 0 34.133333-34.133333v-273.066667a34.133333 34.133333 0 0 0-34.133333-34.133333H238.933333z" fill="#FFED00" p-id="3203"></path><path d="M238.933333 789.76m-25.6 0a25.6 25.6 0 1 0 51.2 0 25.6 25.6 0 1 0-51.2 0Z" fill="#000000" p-id="3204"></path><path d="M307.2 789.76m-25.6 0a25.6 25.6 0 1 0 51.2 0 25.6 25.6 0 1 0-51.2 0Z" fill="#000000" p-id="3205"></path><path d="M375.466667 789.76m-25.6 0a25.6 25.6 0 1 0 51.2 0 25.6 25.6 0 1 0-51.2 0Z" fill="#000000" p-id="3206"></path><path d="M443.733333 789.76m-25.6 0a25.6 25.6 0 1 0 51.2 0 25.6 25.6 0 1 0-51.2 0Z" fill="#000000" p-id="3207"></path><path d="M785.066667 512a68.266667 68.266667 0 1 0 0-136.533333 68.266667 68.266667 0 0 0 0 136.533333z" fill="#000000" p-id="3208"></path><path d="M785.066667 477.866667a34.133333 34.133333 0 1 1 0-68.266667 34.133333 34.133333 0 0 1 0 68.266667z" fill="#FFED00" p-id="3209"></path><path d="M725.333333 610.56h126.788267a17.066667 17.066667 0 1 0 0-34.133333H725.333333a17.066667 17.066667 0 1 0 0 34.133333zM725.333333 678.826667h126.788267a17.066667 17.066667 0 1 0 0-34.133334H725.333333a17.066667 17.066667 0 1 0 0 34.133334zM725.333333 747.093333h126.788267a17.066667 17.066667 0 0 0 0-34.133333H725.333333a17.066667 17.066667 0 1 0 0 34.133333zM725.333333 815.36h126.788267a17.066667 17.066667 0 0 0 0-34.133333H725.333333a17.066667 17.066667 0 1 0 0 34.133333z" fill="#000000" p-id="3210"></path><path d="M512 307.2c0-50.141867-43.554133-85.333333-93.866667-85.333333S324.266667 257.058133 324.266667 307.2h46.933333c0-12.6976 19.473067-28.450133 46.933333-28.450133s46.933333 15.752533 46.933334 28.450133H512z" fill="#000000" p-id="3211"></path><path d="M234.888533 138.973867l156.586667 132.010666a17.066667 17.066667 0 0 0 21.998933-26.112l-156.586666-131.9936a17.066667 17.066667 0 1 0-21.998934 26.112z" fill="#000000" p-id="3212"></path><path d="M481.8432 156.7232l-85.5552 106.3936a17.066667 17.066667 0 1 0 26.606933 21.4016l85.538134-106.410667a17.066667 17.066667 0 0 0-26.589867-21.384533z" fill="#000000" p-id="3213"></path></svg>